<?xml version="1.0" encoding="UTF-8" standalone="no"?>
<!DOCTYPE svg PUBLIC "-//W3C//DTD SVG 1.1//EN"
 "http://www.w3.org/Graphics/SVG/1.1/DTD/svg11.dtd">
<!-- Generated by graphviz version 2.28.0 (20130112.0216)
 -->
<!-- Title: tree Pages: 1 -->
<svg width="350pt" height="260pt"
 viewBox="0.00 0.00 350.00 260.00" xmlns="http://www.w3.org/2000/svg" xmlns:xlink="http://www.w3.org/1999/xlink">
<g id="graph1" class="graph" transform="scale(1 1) rotate(0) translate(4 256)">
<title>tree</title>
<polygon fill="white" stroke="white" points="-4,5 -4,-256 347,-256 347,5 -4,5"/>
<!-- u1 -->
<g id="node1" class="node"><title>u1</title>
<ellipse fill="none" stroke="black" cx="243" cy="-162" rx="27" ry="18"/>
<text text-anchor="middle" x="243" y="-158.3" font-family="Times,serif" font-size="14.00">u1</text>
</g>
<!-- t -->
<g id="node3" class="node"><title>t</title>
<ellipse fill="none" stroke="black" cx="207" cy="-234" rx="27" ry="18"/>
<text text-anchor="middle" x="207" y="-230.3" font-family="Times,serif" font-size="14.00">t</text>
</g>
<!-- u1&#45;&#45;t -->
<g id="edge2" class="edge"><title>u1&#45;&#45;t</title>
<path fill="none" stroke="black" d="M234.65,-179.235C228.835,-190.544 221.11,-205.563 215.304,-216.853"/>
</g>
<!-- v -->
<g id="node4" class="node"><title>v</title>
<ellipse fill="none" stroke="black" cx="171" cy="-162" rx="27" ry="18"/>
<text text-anchor="middle" x="171" y="-158.3" font-family="Times,serif" font-size="14.00">v</text>
</g>
<!-- v&#45;&#45;t -->
<g id="edge4" class="edge"><title>v&#45;&#45;t</title>
<path fill="none" stroke="black" d="M179.35,-179.235C185.165,-190.544 192.89,-205.563 198.696,-216.853"/>
</g>
<!-- d1 -->
<g id="node6" class="node"><title>d1</title>
<ellipse fill="none" stroke="black" cx="243" cy="-90" rx="27" ry="18"/>
<text text-anchor="middle" x="243" y="-86.3" font-family="Times,serif" font-size="14.00">d1</text>
</g>
<!-- d1&#45;&#45;u1 -->
<g id="edge6" class="edge"><title>d1&#45;&#45;u1</title>
<path fill="none" stroke="black" d="M243,-108.303C243,-119.154 243,-133.083 243,-143.896"/>
</g>
<!-- d2 -->
<g id="node8" class="node"><title>d2</title>
<ellipse fill="none" stroke="black" cx="315" cy="-90" rx="27" ry="18"/>
<text text-anchor="middle" x="315" y="-86.3" font-family="Times,serif" font-size="14.00">d2</text>
</g>
<!-- d2&#45;&#45;u1 -->
<g id="edge8" class="edge"><title>d2&#45;&#45;u1</title>
<path fill="none" stroke="black" d="M300.43,-105.166C288.02,-117.23 270.269,-134.488 257.796,-146.615"/>
</g>
<!-- u2 -->
<g id="node10" class="node"><title>u2</title>
<ellipse fill="none" stroke="black" cx="99" cy="-90" rx="27" ry="18"/>
<text text-anchor="middle" x="99" y="-86.3" font-family="Times,serif" font-size="14.00">u2</text>
</g>
<!-- u2&#45;&#45;v -->
<g id="edge10" class="edge"><title>u2&#45;&#45;v</title>
<path fill="none" stroke="black" d="M113.57,-105.166C125.98,-117.23 143.731,-134.488 156.204,-146.615"/>
</g>
<!-- w -->
<g id="node12" class="node"><title>w</title>
<ellipse fill="none" stroke="black" cx="171" cy="-90" rx="27" ry="18"/>
<text text-anchor="middle" x="171" y="-86.3" font-family="Times,serif" font-size="14.00">w</text>
</g>
<!-- w&#45;&#45;v -->
<g id="edge12" class="edge"><title>w&#45;&#45;v</title>
<path fill="none" stroke="black" d="M171,-108.303C171,-119.154 171,-133.083 171,-143.896"/>
</g>
<!-- d3 -->
<g id="node14" class="node"><title>d3</title>
<ellipse fill="none" stroke="black" cx="27" cy="-18" rx="27" ry="18"/>
<text text-anchor="middle" x="27" y="-14.3" font-family="Times,serif" font-size="14.00">d3</text>
</g>
<!-- d3&#45;&#45;u2 -->
<g id="edge14" class="edge"><title>d3&#45;&#45;u2</title>
<path fill="none" stroke="black" d="M41.5703,-33.1655C53.9798,-45.2303 71.7306,-62.4881 84.2043,-74.6153"/>
</g>
<!-- d4 -->
<g id="node16" class="node"><title>d4</title>
<ellipse fill="none" stroke="black" cx="99" cy="-18" rx="27" ry="18"/>
<text text-anchor="middle" x="99" y="-14.3" font-family="Times,serif" font-size="14.00">d4</text>
</g>
<!-- d4&#45;&#45;u2 -->
<g id="edge16" class="edge"><title>d4&#45;&#45;u2</title>
<path fill="none" stroke="black" d="M99,-36.3034C99,-47.1537 99,-61.0833 99,-71.8957"/>
</g>
<!-- d5 -->
<g id="node18" class="node"><title>d5</title>
<ellipse fill="none" stroke="black" cx="171" cy="-18" rx="27" ry="18"/>
<text text-anchor="middle" x="171" y="-14.3" font-family="Times,serif" font-size="14.00">d5</text>
</g>
<!-- d5&#45;&#45;w -->
<g id="edge18" class="edge"><title>d5&#45;&#45;w</title>
<path fill="none" stroke="black" d="M171,-36.3034C171,-47.1537 171,-61.0833 171,-71.8957"/>
</g>
</g>
</svg>
